<svg id="defs" xmlns="http://www.w3.org/2000/svg" version="1.1">
    <defs>
        <svg id="phone" viewBox="0 0 578.106 578.106" xml:space="preserve">
	        <path d="M577.83,456.128c1.225,9.385-1.635,17.545-8.568,24.48l-81.396,80.781
                c-3.672,4.08-8.465,7.551-14.381,10.404c-5.916,2.857-11.729,4.693-17.439,5.508c-0.408,0-1.635,0.105-3.676,0.309
                c-2.037,0.203-4.689,0.307-7.953,0.307c-7.754,0-20.301-1.326-37.641-3.979s-38.555-9.182-63.645-19.584
                c-25.096-10.404-53.553-26.012-85.376-46.818c-31.823-20.805-65.688-49.367-101.592-85.68
                c-28.56-28.152-52.224-55.08-70.992-80.783c-18.768-25.705-33.864-49.471-45.288-71.299
                c-11.425-21.828-19.993-41.616-25.705-59.364S4.59,177.362,2.55,164.51s-2.856-22.95-2.448-30.294
                c0.408-7.344,0.612-11.424,0.612-12.24c0.816-5.712,2.652-11.526,5.508-17.442s6.324-10.71,10.404-14.382L98.022,8.756
                c5.712-5.712,12.24-8.568,19.584-8.568c5.304,0,9.996,1.53,14.076,4.59s7.548,6.834,10.404,11.322l65.484,124.236
                c3.672,6.528,4.692,13.668,3.06,21.42c-1.632,7.752-5.1,14.28-10.404,19.584l-29.988,29.988c-0.816,0.816-1.53,2.142-2.142,3.978
                s-0.918,3.366-0.918,4.59c1.632,8.568,5.304,18.36,11.016,29.376c4.896,9.792,12.444,21.726,22.644,35.802
                s24.684,30.293,43.452,48.653c18.36,18.77,34.68,33.354,48.96,43.76c14.277,10.4,26.215,18.053,35.803,22.949
                c9.588,4.896,16.932,7.854,22.031,8.871l7.648,1.531c0.816,0,2.145-0.307,3.979-0.918c1.836-0.613,3.162-1.326,3.979-2.143
                l34.883-35.496c7.348-6.527,15.912-9.791,25.705-9.791c6.938,0,12.443,1.223,16.523,3.672h0.611l118.115,69.768
                C571.098,441.238,576.197,447.968,577.83,456.128z"/>
        </svg>
        <svg id="call" viewBox="0 0 459 459" xml:space="preserve">
            <path d="M91.8,198.9c35.7,71.4,96.9,130.05,168.3,168.3L316.2,311.1c7.649-7.649,17.85-10.199,25.5-5.1
                c28.05,10.2,58.649,15.3,91.8,15.3c15.3,0,25.5,10.2,25.5,25.5v86.7c0,15.3-10.2,25.5-25.5,25.5C193.8,459,0,265.2,0,25.5
                C0,10.2,10.2,0,25.5,0h89.25c15.3,0,25.5,10.2,25.5,25.5c0,30.6,5.1,61.2,15.3,91.8c2.55,7.65,0,17.85-5.1,25.5L91.8,198.9z"/>
        </svg>
        <svg id="graduation" viewBox="0 0 561 561" xml:space="preserve">
                <path d="M102,311.1v102L280.5,510L459,413.1v-102L280.5,408L102,311.1z M280.5,51L0,204l280.5,153L510,232.05V408h51V204L280.5,51
                    z"/>
        </svg>        
        <svg id="diploma" viewBox="0 0 426.48 426.48" xml:space="preserve">
            <g>
                <path d="M113.345,100.813h106.666c5.521,0,10-4.479,10-10c0-5.523-4.479-10-10-10H113.345c-5.523,0-10,4.477-10,10
                    C103.345,96.336,107.822,100.813,113.345,100.813z"/>
                <path d="M113.345,150.146h145.334c5.521,0,10-4.477,10-10c0-5.522-4.479-10-10-10H113.345c-5.523,0-10,4.478-10,10
                    C103.345,145.67,107.822,150.146,113.345,150.146z"/>
                <path d="M72.769,30h226.486v156.773c3.947,1.141,7.336,2.849,10.107,4.403c4.688-2.63,11.135-5.714,19.092-5.714
                    c0.27,0,0.533,0.023,0.801,0.03V30c0-16.568-13.432-30-30-30H72.769c-16.568,0-30,13.432-30,30v334.293c0,16.568,13.432,30,30,30
                    h181.666v-30H72.769V30z"/>
                <path d="M375.425,260.988c-2.232-1.988-4.768-4.242-5.322-5.954c-0.607-1.872,0.1-5.155,0.779-8.332
                    c1.07-4.979,2.283-10.621-0.797-14.853c-3.105-4.271-8.883-4.856-13.979-5.373c-3.057-0.312-6.52-0.661-8.066-1.789
                    c-1.512-1.1-2.895-4.254-4.115-7.036c-2.074-4.725-4.422-10.079-9.51-11.73c-0.936-0.304-1.932-0.458-2.959-0.458
                    c-3.895,0-7.633,2.17-11.246,4.27c-2.852,1.656-5.801,3.368-7.846,3.368c-2.047,0-4.994-1.712-7.848-3.368
                    c-3.613-2.1-7.352-4.27-11.246-4.27c-1.027,0-2.021,0.154-2.959,0.458c-5.086,1.651-7.438,7.006-9.512,11.73
                    c-1.221,2.782-2.604,5.938-4.113,7.036c-1.551,1.128-5.014,1.479-8.066,1.789c-5.096,0.517-10.873,1.103-13.98,5.373
                    c-3.08,4.23-1.867,9.873-0.797,14.853c0.682,3.177,1.389,6.461,0.779,8.333c-0.555,1.711-3.088,3.965-5.322,5.953
                    c-3.885,3.456-8.287,7.373-8.287,12.809c0,5.435,4.402,9.352,8.287,12.808c2.234,1.987,4.768,4.241,5.324,5.954
                    c0.606,1.871-0.098,5.156-0.781,8.332c-1.07,4.979-2.283,10.621,0.797,14.853c3.107,4.271,8.885,4.856,13.98,5.374
                    c3.055,0.311,6.518,0.66,8.066,1.788c1.512,1.101,2.895,4.254,4.115,7.037c2.072,4.724,4.424,10.077,9.51,11.729
                    c0.938,0.305,1.934,0.457,2.961,0.457c3.893,0,7.631-2.17,11.244-4.269c2.852-1.656,5.801-3.369,7.848-3.369
                    c2.045,0,4.994,1.712,7.846,3.369c3.613,2.099,7.352,4.269,11.246,4.269c1.027,0,2.023-0.154,2.961-0.457
                    c5.084-1.652,7.434-7.007,9.506-11.73c1.223-2.782,2.605-5.938,4.117-7.036c1.549-1.128,5.012-1.479,8.066-1.789
                    c5.098-0.517,10.873-1.103,13.979-5.373c3.08-4.231,1.867-9.874,0.797-14.853c-0.682-3.176-1.389-6.461-0.777-8.332
                    c0.555-1.713,3.088-3.967,5.32-5.955c3.887-3.455,8.287-7.372,8.287-12.807C383.712,268.361,379.31,264.444,375.425,260.988z
                    M312.362,299.766c-14.344,0-25.971-11.627-25.971-25.971c0-14.343,11.627-25.97,25.971-25.97
                    c14.342,0,25.969,11.627,25.969,25.97C338.331,288.139,326.704,299.766,312.362,299.766z"/>
                <path d="M336.765,348.909c-1.697,0.552-3.484,0.831-5.311,0.831c-5.945,0-11.004-2.938-15.068-5.299
                    c-1.152-0.67-2.945-1.71-4.023-2.18c-1.08,0.47-2.871,1.511-4.025,2.18c-4.062,2.359-9.123,5.299-15.064,5.299l0,0
                    c-1.828,0-3.615-0.279-5.314-0.83c-5.02-1.63-8.229-5.049-10.521-8.729v82.188c0,1.631,0.965,3.106,2.457,3.763
                    c1.49,0.655,3.23,0.365,4.434-0.737l28.037-25.781l28.035,25.781c0.771,0.712,1.77,1.085,2.783,1.085
                    c0.557,0,1.119-0.114,1.648-0.348c1.494-0.655,2.457-2.132,2.457-3.763v-82.228C344.989,343.809,341.741,347.295,336.765,348.909z
                    "/>
            </g>
        </svg>          
        <svg id="person" viewBox="0 0 408 408" xml:space="preserve">
            <path d="M204,204c56.1,0,102-45.9,102-102S260.1,0,204,0c-56.1,0-102,45.9-102,102S147.9,204,204,204z M204,255
                C135.15,255,0,288.15,0,357v51h408v-51C408,288.15,272.85,255,204,255z"/>
        </svg>  
        <svg id="couple" viewBox="0 0 561 561" xml:space="preserve">
            <path d="M382.5,255c43.35,0,76.5-33.15,76.5-76.5S425.85,102,382.5,102S306,135.15,306,178.5S339.15,255,382.5,255z M178.5,255
			    c43.35,0,76.5-33.15,76.5-76.5S221.85,102,178.5,102S102,135.15,102,178.5S135.15,255,178.5,255z M178.5,306
			    C119.85,306,0,336.6,0,395.25V459h357v-63.75C357,336.6,237.15,306,178.5,306z M382.5,306c-7.65,0-15.3,0-25.5,2.55
			    c30.6,20.4,51,51,51,86.7V459h153v-63.75C561,336.6,441.15,306,382.5,306z"/>
        </svg>                                  
        <svg id="skype" viewBox="0 0 291.364 291.364" xml:space="preserve">
            <g>
                <path d="M282.966,176.612c2.094-9.495,3.204-19.309,3.204-29.405c0-75.661-62.197-137.011-138.941-137.011
                    c-8.093,0-16.032,0.692-23.752,2.003C111.061,4.479,96.367,0,80.618,0C36.101,0,0.032,35.577,0.032,79.475
                    c0,14.657,4.051,28.385,11.07,40.193c-1.848,8.894-2.813,18.107-2.813,27.539c0,75.688,62.197,134.753,138.932,134.753
                    c8.694,0,17.197-0.792,25.436-2.294c11.352,6.008,24.316,11.698,38.099,11.698c44.508,0,80.577-35.568,80.577-79.466
                    C291.333,199.235,288.319,187.245,282.966,176.612z"/>
                <path style="fill:#FFFFFF;" d="M210.6,203.131c-5.362,7.62-13.21,13.61-23.542,17.916c-10.333,4.342-22.568,6.491-36.724,6.491
                    c-16.978,0-30.98-2.95-42.023-8.858c-7.811-4.242-14.174-9.923-19.072-17.006c-4.88-7.083-7.328-13.983-7.328-20.693
                    c0-3.878,1.466-7.21,4.397-9.969c2.931-2.795,6.673-4.169,11.198-4.169c3.678,0,6.8,1.065,9.331,3.241
                    c2.549,2.158,4.725,5.353,6.509,9.604c2.194,5.053,4.552,9.268,7.11,12.645c2.531,3.377,6.118,6.181,10.724,8.375
                    c4.625,2.176,10.697,3.286,18.198,3.286c10.324,0,18.717-2.203,25.181-6.637c6.445-4.415,9.686-9.959,9.686-16.578
                    c0-5.244-1.748-9.532-5.226-12.782c-3.487-3.277-7.984-5.781-13.501-7.501c-5.508-1.739-12.882-3.578-22.131-5.517
                    c-12.354-2.649-22.705-5.781-31.025-9.331c-8.33-3.578-14.957-8.43-19.837-14.575c-4.898-6.172-7.338-13.819-7.338-22.95
                    c0-8.721,2.576-16.45,7.747-23.214c5.162-6.773,12.618-11.971,22.413-15.613c9.777-3.641,21.285-5.453,34.494-5.453
                    c10.56,0,19.7,1.211,27.411,3.605c7.711,2.422,14.093,5.626,19.172,9.623c5.089,3.997,8.812,8.184,11.152,12.581
                    c2.349,4.37,3.523,8.685,3.523,12.836c0,3.814-1.457,7.274-4.388,10.324c-2.931,3.059-6.591,4.597-10.97,4.597
                    c-3.997,0-7.028-0.929-9.104-2.758c-2.076-1.839-4.324-4.843-6.737-9.022c-3.141-5.972-6.882-10.633-11.27-13.974
                    c-4.388-3.35-11.416-5.025-21.121-5.025c-8.985,0-16.25,1.803-21.767,5.453c-5.517,3.623-8.284,8.011-8.284,13.118
                    c0,3.15,0.956,5.899,2.822,8.202c1.866,2.321,4.452,4.279,7.756,5.927c3.268,1.657,6.6,2.95,9.959,3.905
                    c3.359,0.938,8.922,2.294,16.678,4.097c9.686,2.085,18.471,4.397,26.337,6.91c7.857,2.522,14.557,5.59,20.074,9.167
                    c5.508,3.605,9.823,8.175,12.909,13.692c3.086,5.499,4.643,12.244,4.643,20.238C218.639,186.899,215.945,195.502,210.6,203.131z"/>
            </g>
        </svg>
        <svg id="calendar" viewBox="0 0 488.152 488.152" xml:space="preserve">
            <g>
                <path d="M177.854,269.311c0-6.115-4.96-11.069-11.08-11.069h-38.665c-6.113,0-11.074,4.954-11.074,11.069v38.66
                    c0,6.123,4.961,11.079,11.074,11.079h38.665c6.12,0,11.08-4.956,11.08-11.079V269.311L177.854,269.311z"/>
                <path d="M274.483,269.311c0-6.115-4.961-11.069-11.069-11.069h-38.67c-6.113,0-11.074,4.954-11.074,11.069v38.66
                    c0,6.123,4.961,11.079,11.074,11.079h38.67c6.108,0,11.069-4.956,11.069-11.079V269.311z"/>
                <path d="M371.117,269.311c0-6.115-4.961-11.069-11.074-11.069h-38.665c-6.12,0-11.08,4.954-11.08,11.069v38.66
                    c0,6.123,4.96,11.079,11.08,11.079h38.665c6.113,0,11.074-4.956,11.074-11.079V269.311z"/>
                <path d="M177.854,365.95c0-6.125-4.96-11.075-11.08-11.075h-38.665c-6.113,0-11.074,4.95-11.074,11.075v38.653
                    c0,6.119,4.961,11.074,11.074,11.074h38.665c6.12,0,11.08-4.956,11.08-11.074V365.95L177.854,365.95z"/>
                <path d="M274.483,365.95c0-6.125-4.961-11.075-11.069-11.075h-38.67c-6.113,0-11.074,4.95-11.074,11.075v38.653
                    c0,6.119,4.961,11.074,11.074,11.074h38.67c6.108,0,11.069-4.956,11.069-11.074V365.95z"/>
                <path d="M371.117,365.95c0-6.125-4.961-11.075-11.069-11.075h-38.67c-6.12,0-11.08,4.95-11.08,11.075v38.653
                    c0,6.119,4.96,11.074,11.08,11.074h38.67c6.108,0,11.069-4.956,11.069-11.074V365.95L371.117,365.95z"/>
                <path d="M440.254,54.354v59.05c0,26.69-21.652,48.198-48.338,48.198h-30.493c-26.688,0-48.627-21.508-48.627-48.198V54.142
                    h-137.44v59.262c0,26.69-21.938,48.198-48.622,48.198H96.235c-26.685,0-48.336-21.508-48.336-48.198v-59.05
                    C24.576,55.057,5.411,74.356,5.411,98.077v346.061c0,24.167,19.588,44.015,43.755,44.015h389.82
                    c24.131,0,43.755-19.889,43.755-44.015V98.077C482.741,74.356,463.577,55.057,440.254,54.354z M426.091,422.588
                    c0,10.444-8.468,18.917-18.916,18.917H80.144c-10.448,0-18.916-8.473-18.916-18.917V243.835c0-10.448,8.467-18.921,18.916-18.921
                    h327.03c10.448,0,18.916,8.473,18.916,18.921L426.091,422.588L426.091,422.588z"/>
                <path d="M96.128,129.945h30.162c9.155,0,16.578-7.412,16.578-16.567V16.573C142.868,7.417,135.445,0,126.29,0H96.128
                    C86.972,0,79.55,7.417,79.55,16.573v96.805C79.55,122.533,86.972,129.945,96.128,129.945z"/>
                <path d="M361.035,129.945h30.162c9.149,0,16.572-7.412,16.572-16.567V16.573C407.77,7.417,400.347,0,391.197,0h-30.162
                    c-9.154,0-16.577,7.417-16.577,16.573v96.805C344.458,122.533,351.881,129.945,361.035,129.945z"/>
            </g>
</svg>
        
        <svg id="home" viewBox="0 0 510 510" xml:space="preserve">
            <polygon points="204,471.75 204,318.75 306,318.75 306,471.75 433.5,471.75 433.5,267.75 510,267.75 255,38.25 0,267.75 
                76.5,267.75 76.5,471.75"/>
        </svg>        
    </defs>
</svg>